<svg width="20" height="20" fill="none" xmlns="http://www.w3.org/2000/svg"><g clip-path="url(#clip0_108_2)" fill="#fff"><path d="M7.406 17.778a1.25 1.25 0 100-2.5 1.25 1.25 0 000 2.5zm7.594 0a1.25 1.25 0 100-2.5 1.25 1.25 0 000 2.5zm3.378-14.795a.555.555 0 00-.428-.205H6.383l.361 1.11h10.478l-1.483 6.668H7.406l-2.54-8.04a.556.556 0 00-.366-.36l-2.278-.7a.558.558 0 00-.328 1.066l1.995.611 2.55 8.056-.911.744-.072.073a1.478 1.478 0 00-.045 1.883 1.527 1.527 0 001.256.555h9.272a.555.555 0 100-1.11H6.578a.372.372 0 01-.311-.556l1.339-1.111h8.577a.556.556 0 00.556-.434L18.5 3.456a.557.557 0 00-.122-.473z"/></g><defs><clipPath id="clip0_108_2"><path fill="#fff" d="M0 0h20v20H0z"/></clipPath></defs></svg>