<svg width="20" height="20" fill="none" xmlns="http://www.w3.org/2000/svg"><g clip-path="url(#clip0_108_7)" fill="#fff"><path d="M10 9.444a3.889 3.889 0 100-7.777 3.889 3.889 0 000 7.777zm0-6.666a2.778 2.778 0 110 5.555 2.778 2.778 0 010-5.555zm6.928 10.761a9.533 9.533 0 00-13.85 0c-.193.206-.3.478-.3.761v2.922a1.111 1.111 0 001.11 1.111h12.223a1.111 1.111 0 001.111-1.11V14.3a1.111 1.111 0 00-.294-.761zm-.817 3.683H3.89v-2.928a8.43 8.43 0 0112.222 0v2.928z"/></g><defs><clipPath id="clip0_108_7"><path fill="#fff" d="M0 0h20v20H0z"/></clipPath></defs></svg>